<svg width="477" height="79" viewBox="0 0 477 79" fill="none" xmlns="http://www.w3.org/2000/svg">
<g clip-path="url(#clip0_1_13)">
<path d="M152.608 15.0412C150.642 11.3252 147.724 8.4035 143.862 6.27603C140.021 4.15565 135.278 3.09192 129.612 3.09192H101.978V77.2413H115.326V52.1868H129.428C135.116 52.1868 139.901 51.1372 143.784 49.0381C147.668 46.9178 150.606 44.0031 152.601 40.3084C154.595 36.6137 155.589 32.3943 155.589 27.6358C155.589 22.8774 154.595 18.7288 152.601 15.0341L152.608 15.0412ZM140.444 34.6281C139.436 36.6563 137.878 38.2519 135.764 39.4078C133.657 40.5708 130.944 41.1452 127.631 41.1452H115.326V14.3179H127.561C130.894 14.3179 133.615 14.8852 135.729 16.0198C137.864 17.1332 139.436 18.6863 140.444 20.6932C141.473 22.693 141.994 25.0119 141.994 27.6429C141.994 30.2739 141.48 32.5999 140.444 34.6281V34.6281Z" fill="white"/>
<path d="M206.973 49.492C206.973 44.613 206.303 40.4148 204.957 36.8903C203.611 33.3445 201.765 30.4228 199.418 28.1322C197.092 25.8345 194.407 24.1468 191.355 23.0618C188.332 21.9484 185.118 21.3952 181.714 21.3952C176.436 21.3952 171.841 22.615 167.936 25.0545C164.025 27.4727 160.98 30.8483 158.796 35.1883C156.639 39.5071 155.561 44.5279 155.561 50.2508C155.561 55.9737 156.639 61.1222 158.796 65.4196C160.952 69.6888 164.039 73.0005 168.042 75.3407C172.073 77.6597 176.859 78.8156 182.398 78.8156C186.69 78.8156 190.503 78.1632 193.843 76.8583C197.177 75.5322 199.911 73.6742 202.046 71.2844C204.203 68.8732 205.669 66.0508 206.437 62.81L194.273 61.4342C193.695 63.0014 192.842 64.3205 191.722 65.3771C190.594 66.4408 189.262 67.2493 187.726 67.8024C186.189 68.3343 184.477 68.5967 182.581 68.5967C179.748 68.5967 177.281 67.9939 175.167 66.7883C173.053 65.5544 171.411 63.7957 170.241 61.498C169.106 59.2571 168.521 56.5907 168.479 53.4987H206.973V49.4778V49.492ZM168.5 44.6768C168.627 42.4997 169.177 40.4857 170.163 38.6348C171.291 36.5357 172.863 34.8479 174.878 33.5644C176.894 32.2595 179.234 31.6071 181.898 31.6071C184.392 31.6071 186.577 32.1744 188.445 33.3091C190.341 34.4437 191.813 35.9968 192.871 37.9824C193.928 39.9397 194.463 42.1735 194.492 44.6839H168.507L168.5 44.6768Z" fill="white"/>
<path d="M213.287 77.7306V22.1186H225.917V31.3873H226.494C227.502 28.1748 229.229 25.7069 231.674 23.9624C234.148 22.2037 236.96 21.3243 240.132 21.3243C240.85 21.3243 241.654 21.3598 242.542 21.4307C243.451 21.4804 244.212 21.5584 244.811 21.686V33.7417C244.261 33.5502 243.38 33.38 242.182 33.2311C241.005 33.0609 239.871 32.9758 238.764 32.9758C236.389 32.9758 234.254 33.4935 232.358 34.5359C230.49 35.55 229.01 36.9612 227.932 38.7696C226.854 40.5779 226.311 42.6629 226.311 45.0314V77.7235H213.287V77.7306Z" fill="white"/>
<path d="M394.311 78.8936C389.371 78.8936 385.065 77.6526 381.393 75.1635C377.742 72.6743 374.916 69.2775 372.9 64.9516C370.885 60.6328 369.877 55.7042 369.877 50.1799C369.877 44.6556 370.899 39.6418 372.936 35.3018C375.001 30.9617 377.855 27.5578 381.499 25.0899C385.142 22.6008 389.378 21.3598 394.198 21.3598C397.891 21.3598 401.239 22.0831 404.234 23.5298C407.229 24.9552 409.703 26.9692 411.648 29.5718C413.614 32.1531 414.855 35.1741 415.355 38.6277H408.878C408.202 35.4862 406.588 32.8126 404.023 30.593C401.478 28.345 398.244 27.2245 394.304 27.2245C390.78 27.2245 387.658 28.1889 384.952 30.1249C382.246 32.0326 380.117 34.699 378.588 38.1242C377.073 41.5282 376.319 45.4782 376.319 49.9671C376.319 54.4561 377.066 58.477 378.546 61.9519C380.033 65.4055 382.119 68.1073 384.804 70.0575C387.517 72.0148 390.681 72.9934 394.304 72.9934C396.749 72.9934 398.984 72.5325 400.999 71.6177C403.036 70.6745 404.741 69.3484 406.109 67.6322C407.497 65.9161 408.434 63.8808 408.914 61.5122H415.39C414.911 64.8665 413.72 67.8591 411.831 70.4901C409.964 73.0927 407.525 75.1493 404.53 76.6456C401.556 78.1419 398.152 78.8936 394.311 78.8936V78.8936Z" fill="white"/>
<path d="M438.09 79C434.757 79 431.712 78.3476 428.95 77.0427C426.194 75.7166 423.995 73.809 422.367 71.3269C420.732 68.8165 419.922 65.7742 419.922 62.2001C419.922 59.4486 420.436 57.1296 421.465 55.2504C422.501 53.364 423.96 51.8251 425.856 50.6196C427.752 49.414 429.993 48.4566 432.586 47.7546C435.18 47.0525 438.034 46.5136 441.149 46.1235C444.243 45.7335 446.858 45.4002 448.993 45.1094C451.15 44.8187 452.799 44.3577 453.926 43.7337C455.054 43.1096 455.618 42.0955 455.618 40.6914V39.3865C455.618 35.5997 454.49 32.6141 452.235 30.4441C450.008 28.2457 446.787 27.1465 442.594 27.1465C438.401 27.1465 435.363 28.0259 432.84 29.7846C430.345 31.5433 428.597 33.6211 427.59 36.011L421.508 33.8055C422.755 30.7632 424.482 28.3379 426.687 26.5295C428.893 24.6928 431.367 23.3809 434.102 22.5795C436.836 21.7569 439.606 21.3456 442.411 21.3456C444.518 21.3456 446.717 21.6222 448.993 22.1753C451.298 22.7285 453.433 23.6929 455.399 25.0758C457.365 26.4232 458.965 28.3237 460.184 30.7561C461.411 33.1743 462.017 36.2379 462.017 39.9539V77.7164H455.611V68.9158H455.216C454.448 70.5611 453.306 72.1496 451.798 73.6955C450.283 75.2415 448.394 76.5109 446.111 77.4966C443.834 78.4894 441.156 78.9858 438.09 78.9858V79ZM438.95 73.0998C442.354 73.0998 445.307 72.341 447.802 70.8163C450.297 69.2988 452.214 67.2847 453.56 64.7743C454.927 62.2426 455.611 59.4486 455.611 56.4134V48.3786C455.131 48.8396 454.328 49.2509 453.2 49.6126C452.094 49.9742 450.811 50.3005 449.352 50.5912C447.915 50.8536 446.477 51.0876 445.039 51.2791C443.602 51.4706 442.305 51.6408 441.156 51.7826C438.034 52.1726 435.377 52.7754 433.171 53.5909C430.965 54.4136 429.274 55.5482 428.097 56.9949C426.92 58.4203 426.335 60.257 426.335 62.4979C426.335 65.8735 427.533 68.4974 429.929 70.3554C432.333 72.185 435.342 73.1069 438.964 73.1069L438.95 73.0998Z" fill="white"/>
<path d="M477 3.58124V77.7306H470.594V3.58124H477Z" fill="white"/>
<path d="M294.701 36.8194L282.826 38.1242C282.487 36.9187 281.902 35.784 281.064 34.7203C280.246 33.6566 279.147 32.7985 277.751 32.1531C276.363 31.5007 274.657 31.1745 272.642 31.1745C269.929 31.1745 267.652 31.7631 265.806 32.9474C263.98 34.1317 263.085 35.6635 263.107 37.5427C263.085 39.1596 263.67 40.4786 264.868 41.4856C266.095 42.4997 268.103 43.3294 270.915 43.9819L280.345 46.0101C285.574 47.1447 289.457 48.946 292.002 51.4067C294.567 53.8675 295.864 57.0942 295.885 61.0725C295.864 64.5687 294.842 67.6606 292.826 70.3412C290.839 72.9934 288.069 75.0713 284.517 76.5676C280.965 78.0639 276.892 78.8085 272.282 78.8085C265.517 78.8085 260.076 77.3831 255.946 74.5394C251.823 71.6673 249.364 67.6748 248.567 62.5547L261.267 61.3207C261.845 63.8311 263.064 65.7246 264.939 67.0011C266.807 68.2776 269.245 68.9229 272.24 68.9229C275.235 68.9229 277.815 68.2847 279.689 67.0011C281.585 65.7246 282.53 64.1432 282.53 62.2568C282.53 60.6612 281.916 59.3493 280.697 58.3139C279.499 57.2785 277.625 56.4772 275.087 55.9241L265.658 53.9313C260.358 52.818 256.433 50.9529 253.895 48.3219C251.351 45.6697 250.097 42.3154 250.118 38.259C250.097 34.8338 251.02 31.8624 252.888 29.352C254.783 26.8203 257.412 24.863 260.767 23.4873C264.15 22.0831 268.047 21.3882 272.459 21.3882C278.935 21.3882 284.031 22.7781 287.752 25.5509C291.494 28.3237 293.813 32.0751 294.701 36.8123V36.8194Z" fill="url(#paint0_linear_1_13)"/>
<path d="M301.044 77.7306V22.1186H314.067V77.7306H301.044ZM307.591 14.2257C305.526 14.2257 303.757 13.5378 302.263 12.162C300.776 10.765 300.036 9.0843 300.036 7.12703C300.036 5.16976 300.776 3.46779 302.263 2.09202C303.75 0.694985 305.526 -0.00708008 307.591 -0.00708008C309.656 -0.00708008 311.453 0.694985 312.919 2.09202C314.406 3.46779 315.146 5.14849 315.146 7.12703C315.146 9.10558 314.399 10.765 312.919 12.162C311.453 13.5378 309.677 14.2257 307.591 14.2257Z" fill="url(#paint1_linear_1_13)"/>
<path d="M365.113 36.8194L353.238 38.1242C352.899 36.9187 352.315 35.784 351.476 34.7203C350.658 33.6566 349.559 32.7985 348.164 32.1531C346.775 31.5007 345.07 31.1745 343.054 31.1745C340.341 31.1745 338.064 31.7631 336.218 32.9474C334.4 34.1317 333.498 35.6635 333.519 37.5427C333.498 39.1596 334.083 40.4786 335.281 41.4856C336.507 42.4997 338.515 43.3294 341.327 43.9819L350.75 46.0101C355.979 47.1447 359.87 48.946 362.407 51.4067C364.972 53.8675 366.269 57.0942 366.297 61.0725C366.276 64.5687 365.254 67.6606 363.238 70.3412C361.251 72.9934 358.481 75.0713 354.929 76.5676C351.377 78.0639 347.304 78.8085 342.695 78.8085C335.929 78.8085 330.488 77.3831 326.358 74.5394C322.229 71.6673 319.776 67.6748 318.98 62.5547L331.679 61.3207C332.257 63.8311 333.476 65.7246 335.351 67.0011C337.226 68.2776 339.657 68.9229 342.659 68.9229C345.662 68.9229 348.234 68.2847 350.109 67.0011C352.004 65.7246 352.949 64.1432 352.949 62.2568C352.949 60.6612 352.336 59.3493 351.116 58.3139C349.918 57.2785 348.051 56.4772 345.507 55.9241L336.077 53.9313C330.777 52.818 326.852 50.9529 324.315 48.3219C321.77 45.6697 320.516 42.3154 320.537 38.259C320.516 34.8338 321.439 31.8624 323.307 29.352C325.203 26.8203 327.831 24.863 331.186 23.4873C334.569 22.0831 338.466 21.3882 342.878 21.3882C349.355 21.3882 354.45 22.7781 358.171 25.5509C361.913 28.3237 364.232 32.0751 365.12 36.8123L365.113 36.8194Z" fill="url(#paint2_linear_1_13)"/>
<path d="M57.635 62.6043C57.3602 62.3845 48.8397 56.9594 46.6267 50.9954C44.4702 45.1945 44.4984 39.6986 46.0277 35.0323C47.557 30.3661 48.9524 27.7705 55.2036 22.6859C61.0954 17.892 68.7702 16.4311 71.5046 15.9064C75.3385 15.1688 77.3682 13.4314 78.3408 10.7721C79.8419 6.68024 77.7699 2.14164 73.7035 0.624048C69.637 -0.893546 65.4508 1.3403 63.6184 5.2903C63.0335 6.55259 58.9741 15.6511 53.3994 20.8421C41.2213 32.1744 25.8717 33.4012 21.3894 33.6424C13.7922 34.0537 7.9004 30.7419 7.82287 30.6994C5.21528 29.3236 1.98749 30.3377 0.620268 32.9616C-0.746958 35.5855 0.260843 38.8334 2.86844 40.2091C4.54576 41.0956 6.40631 40.975 8.01316 40.1028C9.62 39.2305 8.01316 40.1028 8.01316 40.1028C8.29506 39.9397 14.7929 36.0819 21.2978 35.7415C25.2374 35.5358 38.5361 36.0819 44.2235 51.8748C46.0136 56.846 45.0481 61.9448 44.3927 66.3416C43.7443 70.7312 44.1249 73.6459 47.0778 76.0074C50.7566 78.9433 56.0987 78.3192 59.0163 74.6174C61.927 70.9227 61.3139 65.5402 57.635 62.6114V62.6043Z" fill="url(#paint3_linear_1_13)"/>
</g>
<defs>
<linearGradient id="paint0_linear_1_13" x1="272.233" y1="2.24953e-06" x2="272.233" y2="78.8156" gradientUnits="userSpaceOnUse">
<stop stop-color="#1EB6CC"/>
<stop offset="1" stop-color="#40DA5C"/>
</linearGradient>
<linearGradient id="paint1_linear_1_13" x1="307.591" y1="1.14842e-05" x2="307.591" y2="78.8156" gradientUnits="userSpaceOnUse">
<stop stop-color="#1EB6CC"/>
<stop offset="1" stop-color="#40DA5C"/>
</linearGradient>
<linearGradient id="paint2_linear_1_13" x1="342.645" y1="-101.736" x2="342.645" y2="-101.736" gradientUnits="userSpaceOnUse">
<stop stop-color="#1EB6CC"/>
<stop offset="1" stop-color="#40DA5C"/>
</linearGradient>
<linearGradient id="paint3_linear_1_13" x1="39.41" y1="0.148914" x2="39.41" y2="77.8512" gradientUnits="userSpaceOnUse">
<stop stop-color="#1EB6CC"/>
<stop offset="1" stop-color="#40DA5C"/>
</linearGradient>
<clipPath id="clip0_1_13">
<rect width="477" height="79" fill="white"/>
</clipPath>
</defs>
</svg>
